<svg width="24" height="24" viewBox="0 0 24 24" fill="none" xmlns="http://www.w3.org/2000/svg">
<rect width="24" height="24" rx="12" fill="#184BFB"/>
<path d="M18.4733 9.80666C19.3067 8.97333 18.9267 7.99999 18.4733 7.52666L16.4733 5.52666C15.6333 4.69333 14.6667 5.07333 14.1933 5.52666L13.06 6.66666H11.3333C10.0667 6.66666 9.33333 7.33333 8.95999 8.09999L5.99999 11.06V13.7267L5.52666 14.1933C4.69333 15.0333 5.07333 16 5.52666 16.4733L7.52666 18.4733C7.88666 18.8333 8.27333 18.9667 8.63999 18.9667C9.11333 18.9667 9.54666 18.7333 9.80666 18.4733L11.6067 16.6667H14C15.1333 16.6667 15.7067 15.96 15.9133 15.2667C16.6667 15.0667 17.08 14.4933 17.2467 13.9333C18.28 13.6667 18.6667 12.6867 18.6667 12V9.99999H18.2733L18.4733 9.80666ZM17.3333 12C17.3333 12.3 17.2067 12.6667 16.6667 12.6667H16V13.3333C16 13.6333 15.8733 14 15.3333 14H14.6667V14.6667C14.6667 14.9667 14.54 15.3333 14 15.3333H11.06L8.87333 17.52C8.66666 17.7133 8.54666 17.6 8.47333 17.5267L6.47999 15.54C6.28666 15.3333 6.39999 15.2133 6.47333 15.14L7.33333 14.2733V11.6067L8.66666 10.2733V11.3333C8.66666 12.14 9.19999 13.3333 10.6667 13.3333C12.1333 13.3333 12.6667 12.14 12.6667 11.3333H17.3333V12ZM17.5267 8.85999L16.3933 9.99999H11.3333V11.3333C11.3333 11.6333 11.2067 12 10.6667 12C10.1267 12 9.99999 11.6333 9.99999 11.3333V9.33333C9.99999 9.02666 10.1133 7.99999 11.3333 7.99999H13.6067L15.1267 6.47999C15.3333 6.28666 15.4533 6.39999 15.5267 6.47333L17.52 8.45999C17.7133 8.66666 17.6 8.78666 17.5267 8.85999Z" fill="white"/>
</svg>
