<svg width="32" height="32" viewBox="0 0 32 32" fill="none" xmlns="http://www.w3.org/2000/svg">
<rect width="32" height="32" rx="16" fill="#FFB800"/>
<path d="M16 16C14.9 16 13.9583 15.6083 13.175 14.825C12.3917 14.0417 12 13.1 12 12C12 10.9 12.3917 9.95833 13.175 9.175C13.9583 8.39167 14.9 8 16 8C17.1 8 18.0417 8.39167 18.825 9.175C19.6083 9.95833 20 10.9 20 12C20 13.1 19.6083 14.0417 18.825 14.825C18.0417 15.6083 17.1 16 16 16ZM8 22V21.2C8 20.6333 8.146 20.1127 8.438 19.638C8.73 19.1633 9.11733 18.8007 9.6 18.55C10.6333 18.0333 11.6833 17.646 12.75 17.388C13.8167 17.13 14.9 17.0007 16 17C17.1 16.9993 18.1833 17.1287 19.25 17.388C20.3167 17.6473 21.3667 18.0347 22.4 18.55C22.8833 18.8 23.271 19.1627 23.563 19.638C23.855 20.1133 24.0007 20.634 24 21.2V22C24 22.55 23.8043 23.021 23.413 23.413C23.0217 23.805 22.5507 24.0007 22 24H10C9.45 24 8.97933 23.8043 8.588 23.413C8.19667 23.0217 8.00067 22.5507 8 22ZM10 22H22V21.2C22 21.0167 21.9543 20.85 21.863 20.7C21.7717 20.55 21.6507 20.4333 21.5 20.35C20.6 19.9 19.6917 19.5627 18.775 19.338C17.8583 19.1133 16.9333 19.0007 16 19C15.0667 18.9993 14.1417 19.112 13.225 19.338C12.3083 19.564 11.4 19.9013 10.5 20.35C10.35 20.4333 10.229 20.55 10.137 20.7C10.045 20.85 9.99933 21.0167 10 21.2V22ZM16 14C16.55 14 17.021 13.8043 17.413 13.413C17.805 13.0217 18.0007 12.5507 18 12C17.9993 11.4493 17.8037 10.9787 17.413 10.588C17.0223 10.1973 16.5513 10.0013 16 10C15.4487 9.99867 14.978 10.1947 14.588 10.588C14.198 10.9813 14.002 11.452 14 12C13.998 12.548 14.194 13.019 14.588 13.413C14.982 13.807 15.4527 14.0027 16 14Z" fill="white"/>
</svg>
