<svg width="25" height="24" viewBox="0 0 25 24" fill="none" xmlns="http://www.w3.org/2000/svg">
<path d="M3.875 3.75C3.875 3.6837 3.90134 3.62011 3.94822 3.57322C3.99511 3.52634 4.0587 3.5 4.125 3.5H17.625C17.6913 3.5 17.7549 3.52634 17.8018 3.57322C17.8487 3.62011 17.875 3.6837 17.875 3.75V13.75C17.875 13.9489 17.954 14.1397 18.0947 14.2803C18.2353 14.421 18.4261 14.5 18.625 14.5C18.8239 14.5 19.0147 14.421 19.1553 14.2803C19.296 14.1397 19.375 13.9489 19.375 13.75V3.75C19.375 3.28587 19.1906 2.84075 18.8624 2.51256C18.5342 2.18437 18.0891 2 17.625 2H4.125C3.66087 2 3.21575 2.18437 2.88756 2.51256C2.55937 2.84075 2.375 3.28587 2.375 3.75V20.25C2.375 21.216 3.159 22 4.125 22H11.125C11.3239 22 11.5147 21.921 11.6553 21.7803C11.796 21.6397 11.875 21.4489 11.875 21.25C11.875 21.0511 11.796 20.8603 11.6553 20.7197C11.5147 20.579 11.3239 20.5 11.125 20.5H4.125C4.0587 20.5 3.99511 20.4737 3.94822 20.4268C3.90134 20.3799 3.875 20.3163 3.875 20.25V3.75Z" fill="#C9C9C9"/>
<path d="M6.625 7C6.42609 7 6.23532 7.07902 6.09467 7.21967C5.95402 7.36032 5.875 7.55109 5.875 7.75C5.875 7.94891 5.95402 8.13968 6.09467 8.28033C6.23532 8.42098 6.42609 8.5 6.625 8.5H15.125C15.3239 8.5 15.5147 8.42098 15.6553 8.28033C15.796 8.13968 15.875 7.94891 15.875 7.75C15.875 7.55109 15.796 7.36032 15.6553 7.21967C15.5147 7.07902 15.3239 7 15.125 7H6.625ZM5.875 11.75C5.875 11.5511 5.95402 11.3603 6.09467 11.2197C6.23532 11.079 6.42609 11 6.625 11H11.125C11.3239 11 11.5147 11.079 11.6553 11.2197C11.796 11.3603 11.875 11.5511 11.875 11.75C11.875 11.9489 11.796 12.1397 11.6553 12.2803C11.5147 12.421 11.3239 12.5 11.125 12.5H6.625C6.42609 12.5 6.23532 12.421 6.09467 12.2803C5.95402 12.1397 5.875 11.9489 5.875 11.75ZM22.155 16.28C22.2287 16.2113 22.2878 16.1285 22.3288 16.0365C22.3698 15.9445 22.3918 15.8452 22.3936 15.7445C22.3954 15.6438 22.3768 15.5438 22.3391 15.4504C22.3014 15.357 22.2453 15.2722 22.174 15.201C22.1028 15.1297 22.018 15.0736 21.9246 15.0359C21.8312 14.9982 21.7312 14.9796 21.6305 14.9814C21.5298 14.9832 21.4305 15.0052 21.3385 15.0462C21.2465 15.0872 21.1637 15.1463 21.095 15.22L16.125 20.19L14.155 18.22C14.0863 18.1463 14.0035 18.0872 13.9115 18.0462C13.8195 18.0052 13.7202 17.9832 13.6195 17.9814C13.5188 17.9796 13.4188 17.9982 13.3254 18.0359C13.232 18.0736 13.1472 18.1297 13.076 18.201C13.0047 18.2722 12.9486 18.357 12.9109 18.4504C12.8732 18.5438 12.8546 18.6438 12.8564 18.7445C12.8582 18.8452 12.8802 18.9445 12.9212 19.0365C12.9622 19.1285 13.0213 19.2113 13.095 19.28L15.595 21.78C15.7356 21.9205 15.9262 21.9993 16.125 21.9993C16.3238 21.9993 16.5144 21.9205 16.655 21.78L22.155 16.28Z" fill="#C9C9C9"/>
</svg>
