<svg width="24" height="24" viewBox="0 0 24 24" fill="none" xmlns="http://www.w3.org/2000/svg">
<rect width="24" height="24" rx="12" fill="#00AC83"/>
<path d="M7.19995 7.20001C7.19996 6.91915 7.27389 6.64325 7.41432 6.40003C7.55475 6.15681 7.75673 5.95483 7.99995 5.81441V16.8C7.99995 17.0122 8.08424 17.2157 8.23427 17.3657C8.38429 17.5157 8.58778 17.6 8.79995 17.6H15.2C15.4121 17.6 15.6156 17.5157 15.7656 17.3657C15.9157 17.2157 16 17.0122 16 16.8V7.20001C16 6.98783 15.9157 6.78435 15.7656 6.63432C15.6156 6.48429 15.4121 6.40001 15.2 6.40001H13.6V5.60001H15.2C15.6243 5.60001 16.0313 5.76858 16.3313 6.06864C16.6314 6.36869 16.8 6.77566 16.8 7.20001V16.8C16.8 17.2244 16.6314 17.6313 16.3313 17.9314C16.0313 18.2314 15.6243 18.4 15.2 18.4H8.79995C8.3756 18.4 7.96864 18.2314 7.66858 17.9314C7.36852 17.6313 7.19995 17.2244 7.19995 16.8V7.20001ZM8.79995 5.60001V10.8C8.79995 10.8743 8.82064 10.9471 8.85969 11.0103C8.89874 11.0735 8.95462 11.1246 9.02107 11.1578C9.08751 11.191 9.16189 11.2051 9.23587 11.1984C9.30986 11.1917 9.38052 11.1646 9.43995 11.12L10.8 10.1L12.16 11.12C12.2194 11.1646 12.29 11.1917 12.364 11.1984C12.438 11.2051 12.5124 11.191 12.5788 11.1578C12.6453 11.1246 12.7012 11.0735 12.7402 11.0103C12.7793 10.9471 12.8 10.8743 12.8 10.8V5.60001H8.79995ZM9.59995 10V6.40001H12V10L11.04 9.28001C10.9707 9.22808 10.8865 9.20001 10.8 9.20001C10.7134 9.20001 10.6292 9.22808 10.56 9.28001L9.59995 10Z" fill="white"/>
</svg>
