<svg width="24" height="24" viewBox="0 0 24 24" fill="none" xmlns="http://www.w3.org/2000/svg">
<g clip-path="url(#clip0_2023_3618)">
<path d="M17.3143 6.68551C19.1658 7.47671 21.2481 7.53795 23.1429 6.85694M6.85714 23.1427C7.53753 21.2419 7.47632 19.1545 6.68571 17.2969C6.06689 15.8179 5.89946 14.1888 6.2045 12.6147C6.50955 11.0407 7.27344 9.59206 8.4 8.45123C9.55486 7.30831 11.0222 6.53287 12.6171 6.22266" stroke="black" stroke-width="1.71429" stroke-linecap="round" stroke-linejoin="round"/>
<path d="M11.3143 17.7772C12.9173 17.4654 14.3913 16.6836 15.5486 15.5315M15.5486 15.5315C16.6771 14.3919 17.4423 12.9432 17.7475 11.3686C18.0526 9.7941 17.884 8.16443 17.2629 6.68575C16.4884 4.82773 16.4455 2.7455 17.1429 0.857178M15.5486 15.5315L8.46858 8.45146M0.857147 17.1429C2.75272 16.4587 4.83833 16.5261 6.68572 17.3315" stroke="black" stroke-width="1.71429" stroke-linecap="round" stroke-linejoin="round"/>
</g>
<defs>
<clipPath id="clip0_2023_3618">
<rect width="24" height="24" fill="white"/>
</clipPath>
</defs>
</svg>
