<svg width="24" height="24" viewBox="0 0 24 24" fill="none" xmlns="http://www.w3.org/2000/svg">
<path d="M17 11V7.5M17 7.5C17 5.1545 17 3.9815 16.38 3.1735C16.2205 2.96562 16.0344 2.77953 15.8265 2.62C15.0185 2 13.845 2 11.5 2H11C8.1715 2 6.7575 2 5.8785 2.8785C5 3.7575 5 5.1715 5 8V19H17V16C17 16 20.5 16 20.5 13V10.5C20.5 7.5 17 7.5 17 7.5Z" stroke="black" stroke-width="2" stroke-linecap="round" stroke-linejoin="round"/>
<path d="M4.5 19H17.5C17.8978 19 18.2794 19.158 18.5607 19.4393C18.842 19.7206 19 20.1022 19 20.5C19 20.8978 18.842 21.2794 18.5607 21.5607C18.2794 21.842 17.8978 22 17.5 22H4.5C4.10218 22 3.72064 21.842 3.43934 21.5607C3.15804 21.2794 3 20.8978 3 20.5C3 20.1022 3.15804 19.7206 3.43934 19.4393C3.72064 19.158 4.10218 19 4.5 19Z" fill="black" stroke="black" stroke-width="2" stroke-linecap="round" stroke-linejoin="round"/>
</svg>
