<svg width="24" height="24" viewBox="0 0 24 24" fill="none" xmlns="http://www.w3.org/2000/svg">
<rect width="24" height="24" rx="12" fill="#2536D0"/>
<path d="M16.6667 10L17.2427 16.3373C17.2542 16.4637 17.2392 16.5911 17.1987 16.7113C17.1583 16.8316 17.0932 16.9421 17.0076 17.0358C16.9221 17.1295 16.8179 17.2044 16.7018 17.2556C16.5858 17.3068 16.4603 17.3333 16.3334 17.3333H16.236C15.9696 17.3334 15.7092 17.2535 15.4885 17.1042C15.2679 16.9548 15.097 16.7427 14.998 16.4953L14.3354 14.838C14.2364 14.5906 14.0655 14.3785 13.8449 14.2292C13.6242 14.0798 13.3638 14 13.0974 14H12.236C11.9696 14 11.7092 14.0798 11.4885 14.2292C11.2679 14.3785 11.097 14.5906 10.998 14.838L10.3354 16.4953C10.2364 16.7427 10.0655 16.9548 9.84487 17.1042C9.6242 17.2535 9.36384 17.3334 9.09737 17.3333H9.00004C8.8736 17.3333 8.74857 17.3068 8.63301 17.2555C8.51745 17.2042 8.41393 17.1292 8.32913 17.0354C8.24433 16.9416 8.18013 16.8311 8.14067 16.711C8.10121 16.5909 8.08737 16.4638 8.10004 16.338L8.66671 10.6667L6.66671 12L5.33337 10.6667L7.33337 6.66667C9.33337 6.66667 11.3334 8.00001 11.3334 10H16.6667ZM16.6667 10C17.1971 10 17.7058 10.2107 18.0809 10.5858C18.456 10.9609 18.6667 11.4696 18.6667 12V13.3333" stroke="white" stroke-linecap="round" stroke-linejoin="round"/>
</svg>
