<svg width="25" height="24" viewBox="0 0 25 24" fill="none" xmlns="http://www.w3.org/2000/svg">
<path fill-rule="evenodd" clip-rule="evenodd" d="M10.625 3C11.2917 3 11.9583 3.25333 12.625 3.76C13.2917 3.25333 13.9583 3 14.625 3H20.625C21.1554 3 21.6641 3.21071 22.0392 3.58579C22.4143 3.96086 22.625 4.46957 22.625 5V18C22.625 18.5304 22.4143 19.0391 22.0392 19.4142C21.6641 19.7893 21.1554 20 20.625 20H13.625C13.625 20.552 13.175 21 12.625 21C12.075 21 11.625 20.55 11.625 20H4.625C4.09457 20 3.58586 19.7893 3.21079 19.4142C2.83571 19.0391 2.625 18.5304 2.625 18V5C2.625 4.46957 2.83571 3.96086 3.21079 3.58579C3.58586 3.21071 4.09457 3 4.625 3H10.625ZM10.625 5H4.625V18H11.625V6C11.625 5.45 11.175 5 10.625 5ZM20.625 5H14.625C14.075 5 13.625 5.45 13.625 6V18H20.625V5Z" fill="#C9C9C9"/>
</svg>
