<svg width="24" height="24" viewBox="0 0 24 24" fill="none" xmlns="http://www.w3.org/2000/svg">
<rect x="0.5" y="0.5" width="23" height="23" rx="11.5" stroke="white"/>
<path d="M12 9.33333C12 9.33333 12 9.33333 11.4933 8.66666C10.9067 7.89333 10.04 7.33333 9 7.33333C7.34 7.33333 6 8.67333 6 10.3333C6 10.9533 6.18667 11.5267 6.50667 12C7.04667 12.8067 12 18 12 18M12 9.33333C12 9.33333 12 9.33333 12.5067 8.66666C13.0933 7.89333 13.96 7.33333 15 7.33333C16.66 7.33333 18 8.67333 18 10.3333C18 10.9533 17.8133 11.5267 17.4933 12C16.9533 12.8067 12 18 12 18" stroke="white" stroke-linecap="round" stroke-linejoin="round"/>
</svg>
