<svg width="24" height="24" viewBox="0 0 24 24" fill="none" xmlns="http://www.w3.org/2000/svg">
<path d="M12.02 19.8634C9.68999 19.8634 7.35999 19.4934 5.14999 18.7534C4.30999 18.4634 3.66999 17.8734 3.38999 17.1034C3.09999 16.3334 3.19999 15.4834 3.65999 14.7234L4.80999 12.8134C5.04999 12.4134 5.26999 11.6134 5.26999 11.1434V8.25342C5.26999 4.53342 8.29999 1.50342 12.02 1.50342C15.74 1.50342 18.77 4.53342 18.77 8.25342V11.1434C18.77 11.6034 18.99 12.4134 19.23 12.8234L20.37 14.7234C20.8 15.4434 20.88 16.3134 20.59 17.1034C20.3 17.8934 19.67 18.4934 18.88 18.7534C16.68 19.4934 14.35 19.8634 12.02 19.8634ZM12.02 3.00342C9.12999 3.00342 6.76999 5.35342 6.76999 8.25342V11.1434C6.76999 11.8734 6.46999 12.9534 6.09999 13.5834L4.94999 15.4934C4.72999 15.8634 4.66999 16.2534 4.79999 16.5834C4.91999 16.9234 5.21999 17.1834 5.62999 17.3234C9.80999 18.7234 14.24 18.7234 18.42 17.3234C18.78 17.2034 19.06 16.9334 19.19 16.5734C19.32 16.2134 19.29 15.8234 19.09 15.4934L17.94 13.5834C17.56 12.9334 17.27 11.8634 17.27 11.1334V8.25342C17.27 5.35342 14.92 3.00342 12.02 3.00342Z" fill="black"/>
<path d="M12.02 22.1434C11.03 22.1434 10.07 21.7434 9.37002 21.0434C8.67002 20.3434 8.27002 19.3834 8.27002 18.3934H9.77002C9.77002 18.9834 10.01 19.5634 10.43 19.9834C10.85 20.4034 11.43 20.6434 12.02 20.6434C13.26 20.6434 14.27 19.6334 14.27 18.3934H15.77C15.77 20.4634 14.09 22.1434 12.02 22.1434Z" fill="black"/>
</svg>
