<svg width="24" height="24" viewBox="0 0 24 24" fill="none" xmlns="http://www.w3.org/2000/svg">
<g clip-path="url(#clip0_2022_2443)">
<path d="M12 0C11.7772 0 11.5636 0.0884997 11.406 0.24603C11.2485 0.403561 11.16 0.617218 11.16 0.84V22.32H8.86319C8.64041 22.32 8.42675 22.4085 8.26922 22.566C8.11169 22.7236 8.02319 22.9372 8.02319 23.16C8.02319 23.3828 8.11169 23.5964 8.26922 23.754C8.42675 23.9115 8.64041 24 8.86319 24H14.8632C15.086 24 15.2996 23.9115 15.4572 23.754C15.6147 23.5964 15.7032 23.3828 15.7032 23.16C15.7032 22.9372 15.6147 22.7236 15.4572 22.566C15.2996 22.4085 15.086 22.32 14.8632 22.32H12.84V11.28H23.16C23.3828 11.28 23.5964 11.1915 23.754 11.034C23.9115 10.8764 24 10.6628 24 10.44V0.84C24 0.617218 23.9115 0.403561 23.754 0.24603C23.5964 0.0884997 23.3828 0 23.16 0H12.12C12.0997 0.000153975 12.0793 0.000954379 12.059 0.0024C12.0394 0.000994386 12.0197 0.000194007 12 0ZM15.312 1.68H17.664V3.4632H20.016V1.68H22.32V3.4632H20.016V5.81496H22.32V8.16696H20.016V9.6H17.664V8.1672H15.312V9.6H12.96V8.1672H15.312V5.81496H12.96V3.46296H15.312V1.68ZM15.312 3.4632V5.81496H17.664V3.46296L15.312 3.4632ZM17.664 5.81496V8.1672L20.016 8.16696V5.81496H17.664Z" fill="#FFB800"/>
</g>
<defs>
<clipPath id="clip0_2022_2443">
<rect width="24" height="24" fill="white"/>
</clipPath>
</defs>
</svg>
