<svg width="24" height="24" viewBox="0 0 24 24" fill="none" xmlns="http://www.w3.org/2000/svg">
<path d="M22 6V9.5L20.5 10L18.96 7.54C18.83 7.33 18.5 7.42 18.5 7.67V11.25C18.5 12.23 18.11 13.11 17.5 13.78V21H15V15H14.75C14.54 15 14.33 14.97 14.13 14.94L9.69003 14.2L8.57003 16.21L9.53003 21H7.00003L6.00003 16.25C5.97003 15.95 6.00003 15.65 6.16003 15.39L7.18003 13.58C6.68352 13.304 6.26747 12.9034 5.97289 12.4177C5.6783 11.932 5.51533 11.3779 5.50003 10.81C5.46003 10.96 5.44003 11.18 5.47003 11.5C5.50003 11.94 5.61003 12.59 5.54003 13.31C5.50003 14.03 5.17003 14.77 4.75003 15.26C4.32003 15.75 3.85003 16.09 3.35003 16.35L2.65003 15.65C2.84003 15.18 3.03003 14.76 3.07003 14.37C3.13003 14 3.06003 13.7 2.95003 13.43L2.42003 12.3C2.21003 11.79 1.95003 11.05 2.00003 10.18C2.03003 9.33 2.50003 8.22 3.39003 7.61C4.29003 7 5.26003 6.92 6.05003 7.08C6.55003 7.18 7.06003 7.42 7.50003 7.76C7.87003 7.59 8.30003 7.5 8.75003 7.5H14.5V7C14.5 4.79 16.29 3 18.5 3H22L21.11 4.34C21.65 4.7 22 5.31 22 6Z" fill="#FFB800"/>
</svg>
