<svg width="25" height="24" viewBox="0 0 25 24" fill="none" xmlns="http://www.w3.org/2000/svg">
<path d="M11.7 22C11.25 22 10.8626 21.85 10.538 21.55C10.2133 21.25 10.0173 20.8833 9.94998 20.45L9.72498 18.8C9.50831 18.7167 9.30431 18.6167 9.11298 18.5C8.92165 18.3833 8.73398 18.2583 8.54998 18.125L6.99998 18.775C6.58331 18.9583 6.16665 18.975 5.74998 18.825C5.33331 18.675 5.00831 18.4083 4.77498 18.025L3.59998 15.975C3.36665 15.5917 3.29998 15.1833 3.39998 14.75C3.49998 14.3167 3.72498 13.9583 4.07498 13.675L5.39998 12.675C5.38331 12.5583 5.37498 12.4457 5.37498 12.337V11.662C5.37498 11.554 5.38331 11.4417 5.39998 11.325L4.07498 10.325C3.72498 10.0417 3.49998 9.68333 3.39998 9.25C3.29998 8.81667 3.36665 8.40833 3.59998 8.025L4.77498 5.975C5.00831 5.59167 5.33331 5.325 5.74998 5.175C6.16665 5.025 6.58331 5.04167 6.99998 5.225L8.54998 5.875C8.73331 5.74167 8.92498 5.61667 9.12498 5.5C9.32498 5.38333 9.52498 5.28333 9.72498 5.2L9.94998 3.55C10.0166 3.11667 10.2126 2.75 10.538 2.45C10.8633 2.15 11.2506 2 11.7 2H14.05C14.5 2 14.8876 2.15 15.213 2.45C15.5383 2.75 15.734 3.11667 15.8 3.55L16.025 5.2C16.2416 5.28333 16.446 5.38333 16.638 5.5C16.83 5.61667 17.0173 5.74167 17.2 5.875L18.75 5.225C19.1666 5.04167 19.5833 5.025 20 5.175C20.4166 5.325 20.7416 5.59167 20.975 5.975L22.15 8.025C22.3833 8.40833 22.45 8.81667 22.35 9.25C22.25 9.68333 22.025 10.0417 21.675 10.325L20.35 11.325C20.3666 11.4417 20.375 11.5543 20.375 11.663V12.337C20.375 12.4457 20.3583 12.5583 20.325 12.675L21.65 13.675C22 13.9583 22.225 14.3167 22.325 14.75C22.425 15.1833 22.3583 15.5917 22.125 15.975L20.925 18.025C20.6916 18.4083 20.3666 18.675 19.95 18.825C19.5333 18.975 19.1166 18.9583 18.7 18.775L17.2 18.125C17.0166 18.2583 16.825 18.3833 16.625 18.5C16.425 18.6167 16.225 18.7167 16.025 18.8L15.8 20.45C15.7333 20.8833 15.5376 21.25 15.213 21.55C14.8883 21.85 14.5006 22 14.05 22H11.7ZM11.875 20H13.85L14.2 17.35C14.7166 17.2167 15.196 17.021 15.638 16.763C16.08 16.505 16.484 16.1923 16.85 15.825L19.325 16.85L20.3 15.15L18.15 13.525C18.2333 13.2917 18.2916 13.046 18.325 12.788C18.3583 12.53 18.375 12.2673 18.375 12C18.375 11.7327 18.3583 11.4703 18.325 11.213C18.2916 10.9557 18.2333 10.7097 18.15 10.475L20.3 8.85L19.325 7.15L16.85 8.2C16.4833 7.81667 16.0793 7.496 15.638 7.238C15.1966 6.98 14.7173 6.784 14.2 6.65L13.875 4H11.9L11.55 6.65C11.0333 6.78333 10.5543 6.97933 10.113 7.238C9.67165 7.49667 9.26731 7.809 8.89998 8.175L6.42498 7.15L5.44998 8.85L7.59998 10.45C7.51665 10.7 7.45831 10.95 7.42498 11.2C7.39165 11.45 7.37498 11.7167 7.37498 12C7.37498 12.2667 7.39165 12.525 7.42498 12.775C7.45831 13.025 7.51665 13.275 7.59998 13.525L5.44998 15.15L6.42498 16.85L8.89998 15.8C9.26665 16.1833 9.67098 16.5043 10.113 16.763C10.555 17.0217 11.034 17.2173 11.55 17.35L11.875 20ZM12.925 15.5C13.8916 15.5 14.7166 15.1583 15.4 14.475C16.0833 13.7917 16.425 12.9667 16.425 12C16.425 11.0333 16.0833 10.2083 15.4 9.525C14.7166 8.84167 13.8916 8.5 12.925 8.5C11.9416 8.5 11.1126 8.84167 10.438 9.525C9.76331 10.2083 9.42565 11.0333 9.42498 12C9.42431 12.9667 9.76198 13.7917 10.438 14.475C11.114 15.1583 11.943 15.5 12.925 15.5Z" fill="#C9C9C9"/>
</svg>
