<svg width="24" height="24" viewBox="0 0 24 24" fill="none" xmlns="http://www.w3.org/2000/svg">
<path d="M15.221 2.5C16.203 2.5 17.1325 2.724 17.9605 3.123L16.3585 4.713C16.139 4.93014 15.9647 5.18867 15.8458 5.4736C15.7269 5.75854 15.6656 6.06424 15.6656 6.373C15.6656 6.68176 15.7269 6.98746 15.8458 7.2724C15.9647 7.55733 16.139 7.81586 16.3585 8.033C16.8035 8.47339 17.4042 8.72042 18.0302 8.72042C18.6563 8.72042 19.257 8.47339 19.702 8.033L21.1285 6.617C21.3685 7.278 21.5 7.991 21.5 8.734C21.5 12.1775 18.6885 14.9685 15.221 14.9685C14.391 14.9685 13.599 14.8085 12.8745 14.5185L6.535 20.8125C6.09028 21.2529 5.48966 21.5 4.86375 21.5C4.23783 21.5 3.63722 21.2529 3.1925 20.8125C2.97322 20.5954 2.79915 20.337 2.68036 20.0522C2.56156 19.7674 2.5004 19.4618 2.5004 19.1532C2.5004 18.8447 2.56156 18.5391 2.68036 18.2543C2.79915 17.9695 2.97322 17.7111 3.1925 17.494L9.476 11.255C9.12251 10.4616 8.94038 9.60257 8.9415 8.734C8.9415 5.2915 11.753 2.5 15.221 2.5Z" stroke="black" stroke-width="2" stroke-linejoin="round"/>
</svg>
