<svg width="32" height="32" viewBox="0 0 32 32" fill="none" xmlns="http://www.w3.org/2000/svg">
<rect width="32" height="32" rx="16" fill="#FFB800"/>
<path d="M16 9.33333C19.682 9.33333 22.6667 12.318 22.6667 16C22.6667 19.682 19.682 22.6667 16 22.6667C12.318 22.6667 9.33334 19.682 9.33334 16C9.33334 12.318 12.318 9.33333 16 9.33333ZM16 10.6667C14.5855 10.6667 13.229 11.2286 12.2288 12.2288C11.2286 13.229 10.6667 14.5855 10.6667 16C10.6667 17.4145 11.2286 18.771 12.2288 19.7712C13.229 20.7714 14.5855 21.3333 16 21.3333C17.4145 21.3333 18.7711 20.7714 19.7712 19.7712C20.7714 18.771 21.3333 17.4145 21.3333 16C21.3333 14.5855 20.7714 13.229 19.7712 12.2288C18.7711 11.2286 17.4145 10.6667 16 10.6667ZM16 12C16.1633 12 16.3209 12.06 16.4429 12.1685C16.5649 12.277 16.6429 12.4265 16.662 12.5887L16.6667 12.6667V15.724L18.4713 17.5287C18.5909 17.6486 18.6603 17.8096 18.6655 17.9789C18.6707 18.1482 18.6112 18.3131 18.4992 18.4402C18.3872 18.5672 18.231 18.6469 18.0624 18.6629C17.8937 18.679 17.7253 18.6303 17.5913 18.5267L17.5287 18.4713L15.5287 16.4713C15.4251 16.3676 15.3585 16.2327 15.3393 16.0873L15.3333 16V12.6667C15.3333 12.4899 15.4036 12.3203 15.5286 12.1953C15.6536 12.0702 15.8232 12 16 12Z" fill="white"/>
</svg>
