<svg width="25" height="24" viewBox="0 0 25 24" fill="none" xmlns="http://www.w3.org/2000/svg">
<path d="M12.625 9C13.4206 9 14.1837 9.31607 14.7463 9.87868C15.3089 10.4413 15.625 11.2044 15.625 12C15.625 12.7956 15.3089 13.5587 14.7463 14.1213C14.1837 14.6839 13.4206 15 12.625 15C11.8294 15 11.0663 14.6839 10.5037 14.1213C9.94107 13.5587 9.625 12.7956 9.625 12C9.625 11.2044 9.94107 10.4413 10.5037 9.87868C11.0663 9.31607 11.8294 9 12.625 9ZM12.625 4.5C17.625 4.5 21.895 7.61 23.625 12C21.895 16.39 17.625 19.5 12.625 19.5C7.625 19.5 3.355 16.39 1.625 12C3.355 7.61 7.625 4.5 12.625 4.5ZM3.805 12C4.61325 13.6503 5.86831 15.0407 7.42748 16.0133C8.98665 16.9858 10.7874 17.5013 12.625 17.5013C14.4626 17.5013 16.2633 16.9858 17.8225 16.0133C19.3817 15.0407 20.6367 13.6503 21.445 12C20.6367 10.3497 19.3817 8.95925 17.8225 7.98675C16.2633 7.01424 14.4626 6.49868 12.625 6.49868C10.7874 6.49868 8.98665 7.01424 7.42748 7.98675C5.86831 8.95925 4.61325 10.3497 3.805 12Z" fill="#C9C9C9"/>
</svg>
